<svg width="16" height="16" viewBox="0 0 16 16" fill="currentColor" xmlns="http://www.w3.org/2000/svg">
<path d="M6.99219 4.08595L4.83187 0.485626C4.74304 0.33752 4.61737 0.214944 4.4671 0.129839C4.31682 0.0447343 4.14706 2.1204e-06 3.97436 0H0.500916C0.0962277 0 -0.140648 0.455314 0.0912277 0.786877L3.56843 5.75439C4.49718 4.88658 5.67843 4.29095 6.99219 4.08595ZM15.4991 0H12.0256C11.6744 0 11.3488 0.184376 11.1681 0.485626L9.00782 4.08595C10.3216 4.29095 11.5028 4.88658 12.4316 5.75408L15.9088 0.786877C16.1406 0.455314 15.9038 0 15.4991 0ZM8 5.00001C4.96249 5.00001 2.49998 7.46252 2.49998 10.5C2.49998 13.5375 4.96249 16 8 16C11.0375 16 13.5 13.5375 13.5 10.5C13.5 7.46252 11.0375 5.00001 8 5.00001Z"/>
</svg>
