<svg width="20" height="16" viewBox="0 0 20 16" fill="currentColor" xmlns="http://www.w3.org/2000/svg">
<path d="M16.9566 1.35132C19.2154 4.83814 20.3309 8.77119 19.9139 13.299C19.9121 13.3182 19.9026 13.3358 19.8876 13.3473C18.1771 14.666 16.5199 15.4663 14.8859 15.9971C14.8732 16.0011 14.8596 16.0009 14.847 15.9964C14.8344 15.992 14.8234 15.9835 14.8157 15.9721C14.4382 15.4207 14.0952 14.8393 13.7947 14.2287C13.7774 14.1928 13.7932 14.1495 13.8287 14.1353C14.3734 13.9198 14.8914 13.6615 15.3896 13.3557C15.4289 13.3316 15.4314 13.2725 15.3951 13.2442C15.2894 13.1617 15.1846 13.0751 15.0844 12.9885C15.0656 12.9725 15.0404 12.9693 15.0192 12.9801C11.7844 14.5484 8.24091 14.5484 4.96792 12.9801C4.94667 12.9701 4.92142 12.9735 4.90317 12.9893C4.80317 13.0759 4.69817 13.1617 4.59342 13.2442C4.55717 13.2725 4.56017 13.3316 4.59967 13.3557C5.09792 13.6557 5.61592 13.9198 6.15991 14.1363C6.19516 14.1505 6.21192 14.1928 6.19442 14.2287C5.90042 14.8401 5.55742 15.4215 5.17292 15.9729C5.15617 15.9952 5.12867 16.0055 5.10267 15.9971C3.47642 15.4663 1.81917 14.666 0.108676 13.3473C0.0944255 13.3358 0.0841756 13.3174 0.0826756 13.2982C-0.265824 9.38172 0.444425 5.41613 3.03717 1.35053C3.04342 1.33977 3.05292 1.33137 3.06392 1.32638C4.33967 0.711648 5.70642 0.25939 7.13491 0.0011065C7.16091 -0.00309323 7.18691 0.00950595 7.20041 0.0336544C7.37691 0.361758 7.57866 0.782518 7.71516 1.12637C9.22091 0.884887 10.7502 0.884887 12.2874 1.12637C12.4239 0.789868 12.6187 0.361758 12.7944 0.0336544C12.8007 0.0216746 12.8104 0.0120771 12.8221 0.00623194C12.8339 0.000386826 12.8471 -0.00140702 12.8599 0.0011065C14.2892 0.260177 15.6559 0.712435 16.9306 1.32638C16.9419 1.33137 16.9511 1.33977 16.9566 1.35132ZM8.48066 8.79796C8.49641 7.64015 7.69241 6.68209 6.68316 6.68209C5.68217 6.68209 4.88592 7.63175 4.88592 8.79796C4.88592 9.96391 5.69792 10.9136 6.68316 10.9136C7.68441 10.9136 8.48066 9.96391 8.48066 8.79796ZM15.1261 8.79796C15.1419 7.64015 14.3379 6.68209 13.3289 6.68209C12.3277 6.68209 11.5314 7.63175 11.5314 8.79796C11.5314 9.96391 12.3434 10.9136 13.3289 10.9136C14.3379 10.9136 15.1261 9.96391 15.1261 8.79796Z"/>
</svg>
