<svg width="16" height="16" viewBox="0 0 16 16" fill="currentColor" xmlns="http://www.w3.org/2000/svg">
<path d="M5.58718 15.0187V12.5725C5.58718 11.948 6.12393 11.4418 6.78605 11.4418H9.20641C9.52437 11.4418 9.82931 11.561 10.0541 11.773C10.279 11.985 10.4053 12.2726 10.4053 12.5725V15.0187C10.4033 15.2783 10.5112 15.5279 10.7052 15.7121C10.8991 15.8964 11.163 16 11.4383 16H13.0895C13.8607 16.0019 14.6011 15.7143 15.1471 15.2006C15.6931 14.687 16 13.9896 16 13.2623V6.29348C16 5.70597 15.7238 5.14867 15.246 4.77173L9.62865 0.540695C8.6515 -0.201151 7.25146 -0.177198 6.30349 0.597583L0.814326 4.77173C0.313887 5.13756 0.0147809 5.69651 0 6.29348V13.2551C0 14.7711 1.30306 16 2.91046 16H4.52403C5.09577 16 5.56042 15.565 5.56456 15.0258L5.58718 15.0187Z"/>
</svg>
