<svg width="16" height="16" viewBox="0 0 16 16" fill="none" xmlns="http://www.w3.org/2000/svg">
<path d="M15.6368 3.70625L13.9509 0.46875C13.8002 0.178125 13.5326 0 13.2469 0H2.75211C2.46636 0 2.1988 0.178125 2.04813 0.46875L0.362218 3.70625C-0.508016 5.37813 0.263505 7.70312 1.88967 7.96875C2.00657 7.9875 2.12606 7.99687 2.24556 7.99687C3.01448 7.99687 3.69508 7.59063 4.16267 6.9625C4.63026 7.59063 5.31346 7.99687 6.07978 7.99687C6.84871 7.99687 7.52931 7.59063 7.99689 6.9625C8.46448 7.59063 9.14768 7.99687 9.91401 7.99687C10.6829 7.99687 11.3635 7.59063 11.8311 6.9625C12.3013 7.59063 12.9819 7.99687 13.7482 7.99687C13.8703 7.99687 13.9872 7.9875 14.1041 7.96875C15.7355 7.70625 16.5096 5.38125 15.6368 3.70625ZM13.7534 9C13.4937 9 13.2365 8.95312 12.9871 8.88125V12H3.01188V8.88125C2.7625 8.95 2.50533 9 2.24556 9C2.0897 9 1.93124 8.9875 1.77797 8.9625C1.6325 8.9375 1.48962 8.89688 1.35195 8.85V15C1.35195 15.5531 1.72342 16 2.18321 16H13.821C14.2808 16 14.6522 15.5531 14.6522 15V8.85C14.512 8.9 14.3717 8.94062 14.2262 8.9625C14.0677 8.9875 13.9119 9 13.7534 9Z" fill="#89899C"/>
</svg>
