<svg width="16" height="20" viewBox="0 0 16 20" fill="currentColor" xmlns="http://www.w3.org/2000/svg">
<path d="M6.08299 17.2279C6.5535 17.1222 9.4205 17.1222 9.891 17.2279C10.2932 17.3266 10.7282 17.5573 10.7282 18.0608C10.7048 18.5402 10.4401 18.9653 10.0743 19.2352C9.60009 19.628 9.04353 19.8767 8.46171 19.9664C8.13994 20.0107 7.82377 20.0117 7.51322 19.9664C6.93046 19.8767 6.3739 19.628 5.90059 19.2342C5.53391 18.9653 5.2692 18.5402 5.24581 18.0608C5.24581 17.5573 5.68077 17.3266 6.08299 17.2279ZM8.04256 0C10.0004 0 12.0002 0.987019 13.1882 2.62466C13.959 3.67916 14.3125 4.73265 14.3125 6.3703V6.79633C14.3125 8.05226 14.625 8.79253 15.3125 9.64559C15.8335 10.2741 16 11.0808 16 11.956C16 12.8302 15.7297 13.6601 15.1881 14.3339C14.479 15.1417 13.4791 15.6573 12.4586 15.747C10.9797 15.8809 9.49991 15.9937 8.00047 15.9937C6.50009 15.9937 5.02122 15.9263 3.54236 15.747C2.5209 15.6573 1.52096 15.1417 0.812862 14.3339C0.271266 13.6601 0 12.8302 0 11.956C0 11.0808 0.167436 10.2741 0.687518 9.64559C1.39655 8.79253 1.6884 8.05226 1.6884 6.79633V6.3703C1.6884 4.68834 2.08313 3.58852 2.896 2.51186C4.10453 0.941697 6.04174 0 7.95837 0H8.04256Z"/>
</svg>
