<?xml version="1.0" encoding="UTF-8"?>
<svg width="20px" height="22px" viewBox="0 0 20 22" version="1.1" xmlns="http://www.w3.org/2000/svg" xmlns:xlink="http://www.w3.org/1999/xlink">
    <title>Combined Shape</title>
    <g id="Page-1" stroke="none" stroke-width="1" fill="none" fill-rule="evenodd">
        <path d="M10.0348589,0 C10.4453526,0 10.8227905,0.1401 11.1204936,0.374482 L18.9274875,4.25656 C19.0048181,4.28837 19.0793441,4.32551 19.1505645,4.36754 L19.2539392,4.41897 L19.2659595,4.44183 C19.7028979,4.7482 19.9903837,5.2484 19.9996995,5.81533 L20,5.84375 L20,6.448 L16.3948976,8.36245032 C16.1902817,8.48394713 16.0540048,8.70284081 16.0540048,8.95304348 L16.0540048,8.95304348 L16.0540048,9.80664209 L14.512672,10.6245843 C14.3080561,10.746131 14.1717791,10.9649948 14.1717791,11.2152672 L14.1717791,11.2152672 L14.1717791,12.3805797 L14.1720798,12.3997241 C14.1824007,12.7694493 14.4904268,13.066087 14.868896,13.066087 C15.005674,13.066087 15.1331331,13.0273994 15.240852,12.9604939 L15.240852,12.9604939 L15.2414533,12.9608928 L17.3188756,11.9828359 C17.3602597,12.0122504 17.3801001,12.0619061 17.3784968,12.1319026 L17.3784968,12.1319026 L17.3786972,13.6336371 C17.3890182,14.0033623 17.6970442,14.3 18.0755135,14.3 C18.2256186,14.3 18.3645008,14.2534354 18.478232,14.1740661 L18.478232,14.1740661 L20,13.35 L20,16.1562 L19.9996995,16.1843 C19.987579,16.9309 19.4930432,17.5618 18.8100891,17.7868 L11.1288077,21.619 C10.8297022,21.8573 10.4491591,22 10.0348589,22 L9.99997997,21.9996 L9.96514109,22 C9.55079084,22 9.17022768,21.8573 8.87119232,21.619 L1.18989092,17.7868 C0.50695876,17.5618 0.0123361481,16.9309 0.000227328185,16.1843 L0.000233399445,5.81533 C0.00955044024,5.2484 0.297095091,4.7482 0.73402951,4.44183 L0.746043814,4.41897 L0.849363424,4.36754 C0.920601817,4.32551 0.995136781,4.28837 1.07249251,4.25656 L8.87944626,0.374482 C9.1772195,0.1401 9.55459727,0 9.96514109,0 L10.0348589,0 Z M2.78449149,8.31413181 C2.39865773,8.31413181 2.08588957,8.60666535 2.08588957,8.96753774 L2.08588957,8.96753774 L2.08588957,14.8137266 C2.08588957,15.0897431 2.26878453,15.3257428 2.52738614,15.4214832 L2.52738614,15.4214832 L2.53029832,15.4254849 L9.61823381,19.110341 C9.73708089,19.1977779 9.88702805,19.25 10.0500399,19.25 C10.2420429,19.25 10.4160708,19.1774694 10.5422987,19.0602199 L10.5422987,19.0602199 L12.2065596,18.1910528 C12.494765,18.1104188 12.7047432,17.8606133 12.7047432,17.5648884 L12.7047432,17.5648884 L12.704442,16.2398288 C12.7021323,16.1613957 12.6850609,16.086464 12.6557383,16.0173349 C12.6873706,15.9429034 12.7047432,15.8616691 12.7047432,15.7766332 L12.7047432,15.7766332 L12.704442,14.4515736 C12.6940987,14.0991248 12.3854076,13.8165054 12.0061212,13.8165054 C11.9002785,13.8165054 11.7999589,13.8384147 11.710083,13.8778313 L11.710083,13.8778313 L11.6895973,13.8660264 L10.2994832,14.6587611 L10.2788971,14.6696657 C10.2104106,14.7043804 10.1454389,14.7229883 10.0839818,14.7253893 C10.0163991,14.7279904 9.94782232,14.7112833 9.87826138,14.6751681 L9.87826138,14.6751681 L4.95193689,12.1255914 L4.93393159,12.1167877 C4.86930127,12.0834736 4.81981429,12.0384546 4.78547064,11.9819307 C4.76059661,11.9410134 4.74564407,11.8971949 4.74060298,11.8505752 L4.74060298,11.8505752 L4.74029168,9.63583997 C4.73177606,9.36399517 4.54572791,9.13380796 4.28683509,9.04317969 L4.28683509,9.04317969 L4.2725654,9.0245118 L3.2582731,8.48734496 C3.13375229,8.37981955 2.9673262,8.31413181 2.78449149,8.31413181 Z M10.0772537,1.16157131 L10.0500399,1.16111111 C10.0223541,1.16111111 9.99506994,1.16252171 9.96820759,1.16528287 C9.94369506,1.16780394 9.91956413,1.17143547 9.89591522,1.17612745 C9.89384657,1.17653763 9.89177792,1.1769578 9.88969922,1.17738798 C9.88477864,1.17840842 9.87987815,1.17946886 9.87499773,1.18057933 C9.87088051,1.18150973 9.86679342,1.18248014 9.86272641,1.18347055 C9.85924183,1.18433092 9.8557673,1.18520128 9.85227268,1.18611167 L9.85227268,1.18611167 L9.84490186,1.18806249 L9.83760132,1.19007334 L9.81311892,1.19738643 L9.79928105,1.20192835 L9.78900808,1.20549986 L9.77328231,1.21127229 C9.77079189,1.2122227 9.76830147,1.2131831 9.76578093,1.21417352 C9.76114153,1.21599429 9.75652221,1.21786508 9.74624296,1.2221744 L9.74624296,1.2221744 C9.7370106,1.22616858 9.73350594,1.22772924 9.73001132,1.22931992 C9.72481961,1.23168091 9.71966806,1.23409193 9.71454664,1.23656297 L9.71454664,1.23656297 L9.71745882,1.23517239 L9.69932297,1.24414618 L9.69788696,1.23931414 L6.36621214,2.92845746 L6.35597934,2.93216902 C6.32858476,2.94232331 6.30207388,2.95397823 6.27660736,2.96700373 L6.27660736,2.96700373 C6.2616247,2.97479703 6.25186387,2.98016929 6.24225368,2.98576166 C6.2346318,2.99020353 6.22711034,2.99476546 6.2196893,2.99946744 C6.21102306,3.00494976 6.20250744,3.01060215 6.19412237,3.01643461 L6.19412237,3.01643461 L6.19082859,3.01873558 L6.1640767,3.03856395 C6.1565452,3.04450646 6.15306063,3.04731765 6.14964635,3.05012884 L6.14964635,3.05012884 L6.13486452,3.06267414 C6.12845772,3.06832652 6.12508361,3.07137781 6.12176975,3.0744291 C6.11437884,3.08124198 6.10715864,3.08820492 6.1001192,3.09530792 L6.1001192,3.09530792 C6.09460614,3.1009403 6.09281866,3.10279108 6.09104123,3.10467187 C6.08384111,3.11224507 6.0768318,3.11997834 6.07005345,3.12785166 C6.06837643,3.12978248 6.0667195,3.1317333 6.06508266,3.13368412 C6.06342573,3.13565496 6.06178888,3.13762579 6.06016208,3.13961663 L6.06016208,3.13961663 L6.05415696,3.14704977 L6.04649491,3.15689392 C6.041735,3.16318658 6.03945547,3.16628789 6.03720606,3.16939921 L6.03720606,3.16939921 L6.0311909,3.17785278 C6.03003607,3.17952348 6.02888124,3.18119419 6.02772641,3.1828849 L6.02772641,3.1828849 L6.02134974,3.19241893 C6.01977315,3.19481994 6.01822668,3.19722095 6.01669025,3.19964198 L6.01669025,3.19964198 C6.00750182,3.21441822 6.00231011,3.22332198 5.99736944,3.23233578 L5.99736944,3.23233578 L5.99489911,3.23688771 L5.98090056,3.26473947 C5.9772754,3.27260279 5.97628124,3.27482373 5.97310169,3.28211806 L5.97310169,3.28211806 C5.96965352,3.29032027 5.96838823,3.29341158 5.96716311,3.29651289 C5.96633966,3.29857376 5.9655363,3.30063463 5.96474298,3.3027155 L5.95145239,3.34163819 L5.95145239,3.34163819 L5.9410539,3.38158881 L5.93902542,3.39119287 C5.93723794,3.40005661 5.93567139,3.40899038 5.93431572,3.41798418 C5.93029892,3.44468546 5.92822023,3.47192696 5.92822023,3.49959865 C5.92822023,3.52148789 5.92952569,3.54311703 5.93205627,3.56442602 C5.93313076,3.57348985 5.93443622,3.58251366 5.93595257,3.59142743 L5.93595257,3.59142743 L5.94186731,3.62123001 L5.94312256,3.62662229 L5.94483974,3.63361524 L5.94813351,3.6460605 C5.94860549,3.64779123 5.94909755,3.64951196 5.9495896,3.65124269 C5.95064401,3.65487422 5.95171851,3.65849575 5.95284321,3.66212728 C5.95355619,3.66440825 5.95426918,3.66667921 5.95500224,3.66891015 L5.95500224,3.66891015 L5.96116803,3.68687774 L5.96116803,3.68687774 L5.96397979,3.69449095 L5.96839827,3.70578572 C5.96930205,3.70801666 5.97021587,3.7102376 5.9711297,3.71243853 C5.97216402,3.71489957 5.97320839,3.7173506 5.97428288,3.71980164 L5.97428288,3.71980164 L5.98073989,3.73411143 L5.98272821,3.73830946 C5.98689564,3.74688308 5.9887032,3.75047459 5.99056097,3.75406611 L5.99056097,3.75406611 L6.00418796,3.77895662 C6.005393,3.7810475 6.00661813,3.78312838 6.00786334,3.78520926 L6.00786334,3.78520926 C6.0134266,3.79437313 6.01535467,3.79746444 6.01733294,3.80057575 L6.01733294,3.80057575 L6.02143008,3.80690842 L6.02762599,3.81616233 C6.03866215,3.83234917 6.05052176,3.8480458 6.06317468,3.86323221 L6.06317468,3.86323221 L6.09301825,3.8965988 L6.12265847,3.92559229 L6.14295837,3.9434761 L6.14295837,3.9434761 L6.16494031,3.96130362 C6.17233123,3.96704605 6.17986273,3.97264842 6.18752477,3.97812073 C6.20075009,3.98754471 6.21436704,3.99655851 6.23188531,4.00728179 L6.23188531,4.00728179 L6.24306708,4.01390584 C6.24619014,4.0157166 6.24933329,4.01750736 6.25250656,4.01928811 L6.25250656,4.01928811 L6.26867418,4.02807182 C6.27170687,4.0296725 6.27475964,4.03125316 6.2778124,4.03280382 C6.28052375,4.0341844 6.28325517,4.03555498 6.29410053,4.04083721 C6.29770561,4.04256794 6.30134081,4.04426866 6.3049961,4.04593937 C6.30685387,4.04678973 6.30871164,4.04763008 6.31056941,4.04846043 C6.31408411,4.0500411 6.31762894,4.05159175 6.32118381,4.0531224 L6.32118381,4.0531224 L6.33108522,4.05729416 L6.34229209,4.06172603 L6.34515908,4.06291904 L6.35143031,4.06532755 L6.3545835,4.06650805 L6.9946506,4.38980458 L5.80733462,4.99182881 L5.79710182,4.99554038 C5.7696972,5.00569467 5.74319636,5.01734959 5.7177198,5.03037509 L5.7177198,5.03037509 C5.70273714,5.03816838 5.69297631,5.04354065 5.68336612,5.04913301 C5.67574424,5.05357489 5.66822278,5.05813681 5.66080174,5.0628388 C5.65213549,5.06832112 5.64361988,5.0739735 5.63523481,5.07980597 C5.63413019,5.08056629 5.63303561,5.08134662 5.63194103,5.08210694 C5.62283293,5.08852965 5.6139056,5.09515245 5.60518914,5.10193531 L5.60518914,5.10193531 C5.59765764,5.10787782 5.59417306,5.11068901 5.59076883,5.11350019 L5.58575787,5.11766195 L5.57597696,5.12604549 L5.56789566,5.13322728 L5.56288219,5.13780046 L5.54123164,5.15867927 L5.53215367,5.16804323 C5.52495355,5.17561643 5.51795428,5.18334969 5.51116588,5.19122302 L5.51116588,5.19122302 L5.50372727,5.20001423 L5.50127451,5.20298798 L5.4952694,5.21042112 L5.48760735,5.22026528 C5.48678391,5.22133573 5.4859705,5.22241619 5.48516714,5.22348664 C5.48285748,5.22655794 5.48056791,5.22965925 5.47529335,5.23698609 L5.47529335,5.23698609 C5.47114851,5.24289484 5.46999368,5.24456554 5.46883885,5.24625626 L5.46246218,5.25579028 C5.46088559,5.2581913 5.45933912,5.26059231 5.45780269,5.26301333 L5.45780269,5.26301333 L5.45404698,5.26901587 L5.43848188,5.29570714 C5.43765844,5.29721778 5.43683499,5.29872842 5.43601155,5.30025906 C5.43110101,5.30942293 5.42643148,5.31870685 5.42202304,5.32811082 L5.42202304,5.32811082 C5.41839788,5.33597414 5.41740372,5.33819508 5.41642965,5.34040602 L5.41642965,5.34040602 L5.41014084,5.35523978 C5.40746214,5.36194511 5.40664874,5.36400598 5.40585542,5.36608686 C5.39605443,5.39166766 5.3881112,5.41800879 5.38216634,5.44496017 L5.38216634,5.44496017 L5.3801479,5.45456422 C5.37835038,5.46342797 5.37678383,5.47236174 5.37542816,5.48135554 C5.37141136,5.50805681 5.3693427,5.53529832 5.3693427,5.56297 C5.3693427,5.58485925 5.37063812,5.60648838 5.37316871,5.62779738 C5.3742432,5.63686121 5.37554866,5.64588502 5.377065,5.65479878 C5.3787621,5.66482302 5.38074038,5.67476722 5.38297974,5.68460137 L5.38297974,5.68460137 L5.38423499,5.68999365 C5.38700658,5.70115836 5.38810116,5.70530011 5.38924595,5.70943185 C5.38972797,5.71116259 5.39020998,5.71288331 5.39071208,5.71461404 C5.39175645,5.71824558 5.39283095,5.72186711 5.39503265,5.72890883 L5.39503265,5.72890883 C5.39737997,5.73619316 5.39869547,5.7400948 5.40005114,5.74398645 C5.40077417,5.74607733 5.40151728,5.74815821 5.40368007,5.75407071 L5.40368007,5.75407071 L5.40510227,5.75786231 L5.41087391,5.77249474 C5.41327646,5.77827093 5.41433087,5.78072196 5.41539532,5.783173 L5.41539532,5.783173 L5.41989414,5.79324725 L5.41989414,5.79324725 L5.42384064,5.80168081 L5.42893068,5.81204769 C5.43601155,5.82584101 5.44056058,5.83413452 5.4453004,5.84232798 L5.4453004,5.84232798 L5.44897577,5.84858062 C5.45453904,5.85774449 5.45646711,5.86083579 5.45844538,5.86394711 C5.45980105,5.866068 5.46116676,5.86817889 5.46254252,5.87027978 L5.46873843,5.87953369 C5.47977459,5.89572052 5.49164423,5.91141715 5.50428711,5.92660357 C5.51074412,5.93435684 5.51740197,5.94197005 5.52421044,5.94939319 C5.53073774,5.95650619 5.53743576,5.96349915 5.54431453,5.97035204 C5.55699758,5.98299738 5.5702731,5.99517252 5.58407081,6.00684745 L5.58407081,6.00684745 L5.61724582,6.03318482 L5.62864725,6.04149208 C5.64186253,6.05091606 5.65547948,6.05992987 5.6694479,6.06849349 C5.67180777,6.06993409 5.67417769,6.0713747 5.67657772,6.07280531 C5.67910831,6.07431594 5.68164893,6.07580657 5.68417952,6.07727719 L5.68888169,6.07997959 L5.69362904,6.08265947 L5.70129109,6.08689125 C5.71281931,6.09304385 5.71587207,6.09462452 5.71892484,6.09617518 L5.71892484,6.09617518 L5.73521297,6.10421857 C5.73882809,6.1059393 5.74245325,6.10764002 5.74610854,6.10931072 C5.74796631,6.11016108 5.74982408,6.11100144 5.75697524,6.11418153 L5.75697524,6.11418153 L5.7722077,6.12066552 L5.78340453,6.12509739 C5.78417776,6.12548755 5.78835524,6.12710824 5.79570598,6.12987941 L5.79570598,6.12987941 L9.1389994,7.81866258 L9.13959188,7.81799229 L9.14479363,7.82064341 L9.15598042,7.82615574 L9.16589188,7.83084772 L9.17880589,7.83669019 C9.18170803,7.83797073 9.18463025,7.83923126 9.1875826,7.8404918 C9.19330654,7.84293283 9.19908069,7.84530383 9.20489501,7.8476048 L9.20489501,7.8476048 L9.20897206,7.84920548 L9.28059161,7.87302553 L9.28310211,7.87371583 L9.30348737,7.87900806 C9.30664056,7.87977839 9.30980379,7.88053871 9.31297707,7.88126902 C9.31786752,7.88239949 9.32277806,7.88348995 9.32773881,7.8845404 L9.32773881,7.8845404 L9.34549306,7.88807189 L9.34549306,7.88807189 L9.35412919,7.88963255 C9.36678211,7.89175344 9.37117046,7.89243373 9.3755789,7.89308401 L9.38971804,7.89502482 L9.40108558,7.8963954 C9.40531326,7.89687561 9.40956103,7.89731579 9.41379876,7.89773597 L9.41379876,7.89773597 L9.4294944,7.89909654 C9.44430635,7.90011698 9.44968887,7.9004071 9.45508142,7.9006572 L9.45508142,7.9006572 L9.46764396,7.90104737 L9.51657864,7.90105737 L9.53523918,7.90024953 L9.5433004,7.89976683 L9.55273988,7.89909654 L9.56842549,7.89773597 C9.57268329,7.89731579 9.57692102,7.89687561 9.5811487,7.8963954 C9.58494458,7.89596522 9.58874045,7.89550503 9.59253633,7.89502482 L9.59253633,7.89502482 L9.60667547,7.893074 L9.6198104,7.89104314 C9.622582,7.89058295 9.62535359,7.89011275 9.63674498,7.88807064 L9.63674498,7.88807064 C9.64836986,7.88581093 9.65143267,7.88518067 9.66191149,7.88293347 L9.66191149,7.88293347 C9.67244053,7.88053871 9.67560376,7.87977839 9.67873687,7.87901807 C9.68557547,7.87733736 9.69238395,7.87556661 9.69914221,7.87371583 L9.69914221,7.87371583 L9.70164267,7.87302553 L9.77327226,7.84920548 C9.78315359,7.84530383 9.78892774,7.84293283 9.79468181,7.84048179 C9.79761407,7.83923126 9.80052625,7.83797073 9.80342839,7.83669019 L9.80990172,7.83379647 L9.81632232,7.83085773 L9.82627394,7.82614574 C9.82999953,7.82435498 9.83369498,7.82252421 9.83737036,7.82067343 C9.83913775,7.81978305 9.8408951,7.81889267 9.84264241,7.81799229 L9.84264241,7.81799229 L9.84323488,7.81866258 L13.1865584,6.12987941 L13.1959477,6.12630415 L13.2022239,6.12383686 L13.1988097,6.12509739 L13.2100567,6.12066552 L13.2252578,6.11418278 L13.2305424,6.11184179 C13.239781,6.10764002 13.2433962,6.1059393 13.2470113,6.10420857 L13.2470113,6.10420857 L13.2632793,6.09618518 C13.2663923,6.09462452 13.2694049,6.09304385 13.272518,6.09142317 L13.272518,6.09142317 L13.2809532,6.08691126 C13.2917986,6.08087872 13.2949116,6.07908796 13.2980246,6.0772872 C13.3006356,6.07580657 13.3031461,6.07431594 13.3092591,6.07065315 L13.3092591,6.07065315 C13.3267448,6.05992987 13.3404019,6.05091606 13.3536573,6.04148208 C13.3612892,6.03601977 13.3688207,6.03041741 13.3761514,6.02467498 L13.3981434,6.00685746 L13.4379097,5.97034204 C13.4448387,5.96349915 13.4514664,5.95650619 13.4579937,5.94943321 C13.4648223,5.94197005 13.47145,5.93435684 13.4779773,5.92658356 C13.4906302,5.91141715 13.5024798,5.89572052 13.513526,5.8795637 C13.5155344,5.8764824 13.5176432,5.87339109 13.5196516,5.87027978 C13.5210575,5.86817889 13.5224634,5.866068 13.5237688,5.86390709 C13.5257772,5.86083579 13.5276852,5.85774449 13.5295932,5.85465318 L13.5295932,5.85465318 L13.5369238,5.84232798 C13.5416436,5.83413452 13.5462629,5.82584101 13.5532923,5.81204394 L13.5532923,5.81204394 L13.5572087,5.80416311 L13.5584137,5.80170082 L13.5623301,5.79321724 L13.566849,5.783173 L13.569962,5.77581989 L13.5727738,5.76913707 L13.5770918,5.75789232 C13.578096,5.75535125 13.5789998,5.75281017 13.580004,5.75023909 C13.580707,5.74815821 13.5815103,5.74607733 13.5822133,5.74397644 C13.5835187,5.7400948 13.5848242,5.73619316 13.5861296,5.73231152 L13.5861296,5.73231152 L13.5899331,5.72005259 C13.5920544,5.71288331 13.5925565,5.71116259 13.5929582,5.70944186 C13.5941632,5.70530011 13.5952679,5.70115836 13.5979792,5.68995363 L13.5979792,5.68995363 L13.6052094,5.6548288 C13.6067157,5.64588502 13.6080212,5.63686121 13.6090254,5.62779738 C13.6116363,5.60648838 13.6129418,5.58485925 13.6129418,5.56297 C13.6129418,5.53529832 13.610833,5.50805681 13.6068162,5.48135554 C13.6054103,5.47236174 13.603904,5.46342797 13.6020964,5.45453421 L13.6020964,5.45453421 L13.600088,5.44497017 C13.5941632,5.41800879 13.5862301,5.39166766 13.5739788,5.35988424 C13.5727738,5.35678293 13.5714683,5.35369163 13.5701629,5.35059032 L13.5701629,5.35059032 L13.5658448,5.34042602 C13.5648406,5.33819508 13.5638364,5.33597414 13.5628322,5.33375321 L13.5628322,5.33375321 L13.5602213,5.32812083 L13.5462629,5.30024906 C13.5453591,5.29872842 13.5445558,5.29721778 13.5437524,5.29571714 C13.5388318,5.28669333 13.53361,5.27778957 13.5281873,5.26900586 L13.5281873,5.26900586 L13.5244718,5.26301333 L13.519752,5.2558203 L13.5116682,5.24373144 C13.5080029,5.23839294 13.5059945,5.23557174 13.5038857,5.23277056 L13.500509,5.2281136 L13.4970571,5.22348664 C13.4921365,5.21695388 13.4895256,5.2136725 13.4870151,5.21042112 L13.4870151,5.21042112 L13.4809899,5.20297798 L13.4760693,5.19705548 C13.4643202,5.18334969 13.4572908,5.17561643 13.4500605,5.16803322 L13.4500605,5.16803322 L13.4428805,5.16057132 C13.4339933,5.15157627 13.4267631,5.14461333 13.4194324,5.13782046 C13.4160181,5.13474917 13.4127043,5.13169788 13.4062774,5.12602548 L13.4062774,5.12602548 L13.3863315,5.10928717 L13.381072,5.10506663 C13.3683186,5.09515245 13.3593813,5.08852965 13.3503435,5.08211694 L13.3503435,5.08211694 C13.3385943,5.0739735 13.3300586,5.06832112 13.3214225,5.0628288 C13.3139914,5.05813681 13.3064599,5.05357489 13.298828,5.04912301 C13.2892881,5.04354065 13.2795474,5.03816838 13.2696058,5.0329962 L13.2696058,5.0329962 C13.2390781,5.01734959 13.2125672,5.00569467 13.1851525,4.99554038 L13.1851525,4.99554038 L13.1749097,4.99182881 L12.5453767,4.67262401 L13.7453958,4.06650805 C13.7527264,4.06375689 13.7569441,4.0621262 13.7610613,4.0604655 L13.7610613,4.0604655 L13.757647,4.06172603 L13.7688941,4.05729416 L13.7688941,4.05729416 L13.7788356,4.0531224 C13.7823503,4.05159175 13.7859655,4.0500411 13.7894802,4.04847044 C13.7912877,4.04763008 13.7931957,4.04678973 13.7950033,4.04593937 C13.7987188,4.04426866 13.8023339,4.04256794 13.805949,4.04083721 L13.805949,4.04083721 L13.8267862,4.03045533 L13.8313553,4.02805181 L13.8475229,4.01927811 L13.8569624,4.01391584 C13.8594729,4.01243522 13.8619834,4.01094459 13.868109,4.00728179 L13.868109,4.00728179 L13.8923605,3.99194406 L13.9124947,3.97811072 C13.9201266,3.97264842 13.9276581,3.96704605 13.9350892,3.96130362 L13.9350892,3.96130362 L13.9570812,3.9434861 C13.9708387,3.93180117 13.9840941,3.91962602 13.9968475,3.90697068 L14.0168311,3.88606185 C14.02376,3.8785987 14.0303878,3.87098548 14.0368146,3.8632122 C14.0494676,3.8480458 14.0613171,3.83234917 14.0723633,3.81619234 L14.0723633,3.81619234 L14.0785894,3.80690842 C14.0846146,3.79746444 14.086623,3.79437313 14.088531,3.79128183 L14.088531,3.79128183 L14.0940038,3.78208669 L14.0940038,3.78208669 L14.0958616,3.77895662 L14.1094183,3.7540461 C14.1113263,3.75047459 14.1131339,3.74688308 14.114841,3.74326155 C14.1156444,3.74162085 14.1164477,3.73996015 14.1172511,3.73832946 L14.1192971,3.73411018 L14.1256864,3.71980164 C14.126791,3.7173506 14.1278956,3.71489957 14.1288998,3.71244853 C14.1298036,3.7102376 14.1307074,3.70801666 14.1316111,3.70576571 L14.1316111,3.70576571 L14.1360296,3.69452096 C14.1396447,3.68478685 14.1403477,3.68270597 14.1410506,3.68060509 L14.1410506,3.68060509 L14.1471762,3.66210728 C14.1482809,3.65849575 14.1493855,3.65487422 14.1503897,3.65123268 L14.1503897,3.65123268 C14.1530006,3.64192875 14.1541052,3.637787 14.1552098,3.63363525 L14.1552098,3.63363525 L14.156917,3.62658227 L14.1640468,3.59145744 C14.1655531,3.58251366 14.1668586,3.57348985 14.1679632,3.56442602 C14.1704737,3.54311703 14.1717791,3.52148789 14.1717791,3.49959865 C14.1717791,3.47192696 14.1696703,3.44468546 14.1656535,3.41798418 L14.1656535,3.41798418 L14.1609338,3.39116286 L14.1589254,3.38159882 C14.1530006,3.35463743 14.1450674,3.32829631 14.1340589,3.29960669 L14.1340589,3.29960669 C14.1316111,3.29341158 14.1304061,3.29032027 14.1291006,3.28721896 L14.1291006,3.28721896 L14.1246822,3.27705467 C14.123678,3.27482373 14.1227742,3.27260279 14.1216696,3.27038185 L14.1216696,3.27038185 L14.1191591,3.26474947 L14.1038952,3.23460424 L14.0950583,3.21890011 L14.0950583,3.21890011 L14.0871251,3.20563451 L14.0833091,3.19964198 L14.0786898,3.19244894 L14.0722629,3.18286489 C14.0711583,3.18119419 14.0699533,3.17952348 14.0688486,3.17786278 L14.0688486,3.17786278 L14.0628234,3.16939921 C14.0605138,3.16628789 14.0583045,3.16318658 14.0559949,3.16011529 L14.0559949,3.16011529 L14.0534844,3.15688392 L14.0458524,3.14704977 L14.0458524,3.14704977 L14.0398272,3.13960662 L14.0299861,3.12785166 C14.0231575,3.11997834 14.0161281,3.11224507 14.0089983,3.10466187 L14.0089983,3.10466187 L13.9998601,3.09530792 C13.9928307,3.08820492 13.9856004,3.08124198 13.9782698,3.07444911 C13.9749559,3.07137781 13.9715416,3.06832652 13.9681274,3.06532526 L13.9681274,3.06532526 L13.9651148,3.06265413 L13.950353,3.05015885 C13.9469387,3.04731765 13.943424,3.04450646 13.9399093,3.04169528 C13.9386039,3.04065484 13.9372984,3.03960439 13.935993,3.03858396 L13.935993,3.03858396 L13.9091808,3.01874559 C13.8975321,3.01060215 13.8889964,3.00494976 13.8803603,2.99945744 C13.8729292,2.99476546 13.8653977,2.99020353 13.8577658,2.98575165 C13.8481255,2.98016929 13.8383847,2.97479703 13.8284431,2.96962484 L13.8284431,2.96962484 C13.7979154,2.95397823 13.7714046,2.94232331 13.7439899,2.93216902 L13.7439899,2.93216902 L13.7337471,2.92845746 L10.4021124,1.23931414 L10.4007065,1.24414618 L10.3825305,1.23517239 L10.3854427,1.23656297 L10.369978,1.22930991 C10.3664633,1.22772924 10.363049,1.22616858 10.3594339,1.22462793 C10.3557184,1.22297724 10.3519024,1.22135655 10.3480864,1.21977589 C10.3434671,1.21786508 10.3388478,1.21599429 10.3342285,1.21415351 L10.3342285,1.21415351 L10.3189144,1.20834981 L10.3189144,1.20834981 L10.3110315,1.20548985 L10.3007886,1.20193835 L10.2868302,1.19737643 L10.2624282,1.19008335 C10.257608,1.18871277 10.2526874,1.18738221 10.2476664,1.18610166 L10.2476664,1.18610166 L10.2373232,1.18348056 C10.2332059,1.18248014 10.2290887,1.18150973 10.2249715,1.18057933 L10.2176785,1.17894989 C10.2082014,1.1769578 10.206193,1.17653763 10.2040841,1.17613746 C10.1804854,1.17143547 10.1562842,1.16780394 10.1317817,1.16528287 C10.1138066,1.16343209 10.0956305,1.16219157 10.0772537,1.16157131 L10.0772537,1.16157131 Z" id="Combined-Shape" fill="#FFFFFF"></path>
    </g>
</svg>