<svg width="18" height="16" viewBox="0 0 18 16" fill="currentColor" xmlns="http://www.w3.org/2000/svg">
<path d="M5.07303 15.9938C6.55074 16.0433 8.02338 15.7959 9.4039 15.2662C10.7844 14.7366 12.0448 13.9355 13.1106 12.9102C14.1764 11.8849 15.0259 10.6563 15.609 9.29698C16.1921 7.93763 16.4969 6.47513 16.5055 4.99591C17.1827 4.15749 17.6855 3.19209 17.9845 2.15646C18.0068 2.07463 18.005 1.9881 17.9793 1.90728C17.9536 1.82646 17.9051 1.75479 17.8396 1.70091C17.7742 1.64703 17.6945 1.61323 17.6103 1.60359C17.5261 1.59395 17.4408 1.60887 17.3649 1.64656C17.0106 1.81718 16.6118 1.87229 16.2245 1.80413C15.8373 1.73597 15.4811 1.54798 15.2063 1.26663C14.8555 0.88228 14.4312 0.572291 13.9584 0.35503C13.4856 0.137768 12.9741 0.0176537 12.4541 0.00180381C11.9341 -0.0140461 11.4162 0.074691 10.9311 0.262757C10.446 0.450823 10.0036 0.734391 9.63001 1.09666C9.11855 1.59222 8.74392 2.21174 8.54254 2.89499C8.34117 3.57825 8.31989 4.302 8.48077 4.99591C5.13299 5.19588 2.83451 3.60618 0.995721 1.4266C0.940481 1.36401 0.868219 1.31887 0.787762 1.29669C0.707304 1.27451 0.622131 1.27625 0.542646 1.3017C0.46316 1.32715 0.392801 1.3752 0.34016 1.43999C0.28752 1.50478 0.254877 1.58351 0.246216 1.66655C-0.104082 3.6106 0.14861 5.61534 0.970356 7.41152C1.7921 9.2077 3.14355 10.7093 4.84318 11.7146C3.70357 13.0222 2.1032 13.8389 0.376131 13.9942C0.283604 14.0095 0.19819 14.0535 0.131844 14.1198C0.0654969 14.1861 0.0215382 14.2715 0.00611911 14.3641C-0.00929994 14.4566 0.00459264 14.5517 0.0458525 14.636C0.0871123 14.7202 0.153674 14.7895 0.236223 14.834C1.73875 15.5853 3.39337 15.982 5.07303 15.9938Z"/>
</svg>
